<?xml version="1.0" encoding="UTF-8"?>
<svg width="200px" height="191px" viewBox="0 0 200 191" version="1.1" xmlns="http://www.w3.org/2000/svg" xmlns:xlink="http://www.w3.org/1999/xlink">
    <!-- Generator: Sketch 57.1 (83088) - https://sketch.com -->
    <title>logo/default</title>
    <desc>Created with Sketch.</desc>
    <g id="logo/default" stroke="none" stroke-width="1" fill="none" fill-rule="evenodd">
        <path d="M107.156884,163.495699 C112.549653,163.495699 114.198293,164.985848 114.198293,168.10482 L114.198293,173.012441 L108.219916,173.012441 L108.219916,169.498603 C108.219916,168.675966 107.676641,168.34456 106.684164,168.34456 C105.595262,168.34456 105.035525,168.675966 105.035525,169.498603 L105.035525,185.008848 C105.035525,185.840887 105.595262,186.184044 106.646535,186.184044 C107.676641,186.184044 108.219916,185.840887 108.219916,185.008848 L108.219916,180.782841 L114.198293,180.782841 L114.198293,184.762057 C114.198293,189.521603 112.370913,191 107.156884,191 L104.86384,191 C100.28716,191 98.636168,188.72717 98.636168,185.248588 L98.636168,170.041544 C98.636168,165.742675 100.28716,163.495699 104.86384,163.495699 L107.156884,163.495699 Z M123.90175,163.808536 L123.90175,190.697034 L117.71641,190.697034 L117.71641,163.808536 L123.90175,163.808536 Z M71.4580702,163.808536 L71.4580702,190.697034 L65.2938977,190.697034 L65.2938977,163.808536 L71.4580702,163.808536 Z M32.121195,163.807596 L36.1851745,190.696094 L29.9057618,190.696094 L29.1273027,184.237214 L25.1009527,184.237214 L24.3319011,190.696094 L18.0524884,190.696094 L22.1094123,163.807596 L32.121195,163.807596 Z M51.290337,163.807596 L53.7550653,187.450201 L53.8350278,187.450201 L56.271534,163.807596 L62.5885762,163.807596 L59.034946,190.696094 L48.5363324,190.696094 L44.970943,163.807596 L51.290337,163.807596 Z M8.00801507,163.807596 C13.7888377,163.807596 15.6044581,165.076809 15.6044581,173.928389 L15.6044581,180.62936 C15.6044581,189.483291 13.7888377,190.696094 8.00801507,190.696094 L-4.4408921e-15,190.696094 L-4.4408921e-15,163.807596 L8.00801507,163.807596 Z M85.1688268,163.810652 L89.6890632,184.764407 L89.7831368,184.700946 L89.3362872,163.810652 L95.0630176,163.810652 L95.0630176,190.696799 L86.0554705,190.696799 L81.5611043,169.752446 L81.4952528,169.752446 L81.859788,190.696799 L76.1706871,190.696799 L76.1706871,163.810652 L85.1688268,163.810652 Z M7.79870131,168.412017 L6.15946886,168.412017 L6.15946886,185.884839 L7.79870131,185.884839 C9.13219457,185.884839 9.42617457,185.269036 9.42617457,183.275903 L9.42617457,171.006851 C9.42617457,169.009016 9.13219457,168.412017 7.79870131,168.412017 Z M27.1447017,167.507115 L27.0670909,167.507115 L25.6277649,179.625742 L28.609898,179.625742 L27.1447017,167.507115 Z M141.123333,130.781517 C146.299733,130.781517 149.09607,131.940261 149.09607,136.314342 L149.09607,152.743591 C149.09607,157.122373 146.299733,158.29992 141.123333,158.29992 C135.942229,158.29992 133.129429,157.122373 133.129429,152.743591 L133.129429,136.314342 C133.129429,131.940261 135.942229,130.781517 141.123333,130.781517 Z M39.6063961,130.781517 C44.7475182,130.781517 47.5767817,131.940261 47.5767817,136.314342 L47.5767817,152.743591 C47.5767817,157.122373 44.7475182,158.29992 39.6063961,158.29992 C34.4370518,158.29992 31.5936773,157.122373 31.5936773,152.743591 L31.5936773,136.314342 C31.5936773,131.940261 34.4370518,130.781517 39.6063961,130.781517 Z M101.444735,131.080957 C108.060461,131.080957 109.918415,132.465338 109.918415,137.528085 L109.918415,140.738722 C109.918415,144.823706 108.316812,145.759162 105.708621,146.198686 L105.708621,146.266847 C108.45557,146.88265 109.918415,147.352729 109.918415,150.662082 L109.918415,157.988258 L103.744835,157.988258 L103.744835,150.278968 C103.744835,149.174283 103.126301,148.694803 101.051978,148.694803 L99.9630761,148.694803 L99.9630761,157.988258 L93.8177183,157.988258 L93.8177183,131.080957 L101.444735,131.080957 Z M122.020983,131.080957 C127.76888,131.080957 129.605667,132.343118 129.605667,141.2041 L129.605667,147.912122 C129.605667,156.754301 127.76888,157.988258 122.020983,157.988258 L114.001209,157.988258 L114.001209,131.080957 L122.020983,131.080957 Z M6.15946886,131.080957 L6.15946886,153.139397 L12.1425497,153.139397 L12.1425497,157.988258 L-8.8817842e-15,157.988258 L-8.8817842e-15,131.080957 L6.15946886,131.080957 Z M27.8192094,131.080957 L27.8192094,135.915716 L22.1465714,135.915716 L22.1465714,141.826954 L27.4005818,141.826954 L27.4005818,146.424323 L22.1465714,146.424323 L22.1465714,153.139397 L28.2684108,153.139397 L28.2684108,157.988258 L15.9588804,157.988258 L15.9588804,131.080957 L27.8192094,131.080957 Z M86.9790381,131.080957 L91.0242028,157.988258 L84.7518456,157.988258 L83.9616274,151.512925 L79.9587958,151.512925 L79.1850404,157.988258 L72.8985722,157.988258 L76.9366814,131.080957 L86.9790381,131.080957 Z M59.9439321,131.081897 L64.4759277,152.049755 L64.5441311,151.969841 L64.1160962,131.081897 L69.8451784,131.081897 L69.8451784,157.986848 L60.8470387,157.986848 L56.3385615,137.021341 L56.2609508,137.021341 L56.6372451,157.986848 L50.952848,157.986848 L50.952848,131.081897 L59.9439321,131.081897 Z M141.123333,135.388287 C139.968579,135.388287 139.502915,135.646831 139.502915,136.655149 L139.502915,152.409835 C139.502915,153.406401 139.968579,153.686098 141.123333,153.686098 C142.287494,153.686098 142.713177,153.406401 142.713177,152.409835 L142.713177,136.655149 C142.713177,135.646831 142.287494,135.388287 141.123333,135.388287 Z M39.6063961,135.388287 C38.4328279,135.388287 37.9859783,135.646831 37.9859783,136.655149 L37.9859783,152.409835 C37.9859783,153.406401 38.4328279,153.686098 39.6063961,153.686098 C40.7493903,153.686098 41.1868325,153.406401 41.1868325,152.409835 L41.1868325,136.655149 C41.1868325,135.646831 40.7493903,135.388287 39.6063961,135.388287 Z M121.797558,135.690078 L120.167733,135.690078 L120.167733,153.139397 L121.797558,153.139397 C123.152218,153.139397 123.434439,152.554149 123.434439,150.549264 L123.434439,138.296664 C123.434439,136.282377 123.152218,135.690078 121.797558,135.690078 Z M82.0001929,134.80633 L81.9343413,134.80633 L80.4762006,146.896753 L83.4371671,146.896753 L82.0001929,134.80633 Z M101.856307,135.690078 L99.9630761,135.690078 L99.9630761,144.06923 L101.19544,144.06923 C103.392059,144.06923 103.744835,143.483982 103.744835,141.74234 L103.744835,137.683211 C103.744835,136.317633 103.189801,135.690078 101.856307,135.690078 Z M140.817829,98.0795565 C145.980118,98.0795565 148.807029,99.2500523 148.807029,103.638236 L148.807029,120.055733 C148.807029,124.427464 145.980118,125.583857 140.817829,125.583857 C135.648485,125.583857 132.828628,124.427464 132.828628,120.055733 L132.828628,103.638236 C132.828628,99.2500523 135.648485,98.0795565 140.817829,98.0795565 Z M106.081388,98.0795565 C111.229565,98.0795565 114.044718,99.2500523 114.044718,103.638236 L114.044718,120.055733 C114.044718,124.427464 111.229565,125.583857 106.081388,125.583857 C100.909692,125.583857 98.0780764,124.427464 98.0780764,120.055733 L98.0780764,103.638236 C98.0780764,99.2500523 100.909692,98.0795565 106.081388,98.0795565 Z M160.317875,98.0795565 C165.186183,98.0795565 168.302371,98.9092453 168.302371,104.449122 L168.302371,107.102716 L162.373383,107.102716 L162.373383,104.25639 C162.373383,103.055339 161.912422,102.707481 160.353152,102.707481 C159.167825,102.707481 158.716272,103.055339 158.716272,104.369209 L158.716272,119.975819 C158.716272,120.63628 159.167825,120.979437 160.393134,120.979437 C161.912422,120.979437 162.373383,120.63628 162.373383,120.088638 L162.373383,115.85558 L160.461337,115.85558 L160.461337,110.802235 L168.302371,110.802235 L168.302371,119.44228 C168.302371,124.653102 166.244511,125.583857 160.317875,125.583857 C155.14853,125.583857 152.33573,124.427464 152.33573,120.055733 L152.33573,103.638236 C152.33573,99.2500523 155.14853,98.0795565 160.317875,98.0795565 Z M64.1708941,98.0769711 C69.5824779,98.0769711 71.2193585,99.5976754 71.2193585,102.709596 L71.2193585,107.621918 L65.2574442,107.621918 L65.2574442,104.082226 C65.2574442,103.261938 64.7071136,102.930533 63.6958224,102.930533 C62.6186797,102.930533 62.0518863,103.261938 62.0518863,104.082226 L62.0518863,119.613624 C62.0518863,120.433911 62.6186797,120.753564 63.6770077,120.753564 C64.7071136,120.753564 65.2574442,120.433911 65.2574442,119.613624 L65.2574442,115.359412 L71.2193585,115.359412 L71.2193585,119.359781 C71.2193585,124.109926 69.389627,125.581272 64.1708941,125.581272 L61.8754983,125.581272 C57.3035214,125.581272 55.6760482,123.322544 55.6760482,119.836911 L55.6760482,104.636918 C55.6760482,100.333349 57.3035214,98.0769711 61.8754983,98.0769711 L64.1708941,98.0769711 Z M37.3526278,98.3858127 L37.3526278,103.225272 L33.0393533,103.225272 L33.0393533,125.288413 L26.8751808,125.288413 L26.8751808,103.225272 L22.5572026,103.225272 L22.5572026,98.3858127 L37.3526278,98.3858127 Z M178.709028,98.387693 L178.709028,125.285592 L172.5378,125.285592 L172.5378,98.387693 L178.709028,98.387693 Z M84.0310067,98.387223 L88.5771133,119.359781 L88.6594277,119.277517 L88.2008189,98.387223 L93.9393084,98.387223 L93.9393084,125.285122 L84.9317614,125.285122 L80.4185805,104.336068 L80.3715437,104.336068 L80.7431344,125.285122 L75.061089,125.285122 L75.061089,98.387223 L84.0310067,98.387223 Z M11.8485697,98.3867529 L11.8485697,103.228563 L6.14300598,103.228563 L6.14300598,109.123349 L11.418183,109.123349 L11.418183,113.748923 L6.14300598,113.748923 L6.14300598,120.466346 L12.2766046,120.466346 L12.2766046,125.284652 L-8.8817842e-16,125.284652 L-8.8817842e-16,98.3867529 L11.8485697,98.3867529 Z M195.938372,98.3867529 L200,125.284652 L193.727643,125.284652 L192.91861,118.825772 L188.920482,118.825772 L188.127912,125.284652 L181.855555,125.284652 L185.912479,98.3867529 L195.938372,98.3867529 Z M124.079313,98.3867529 L124.079313,120.466346 L130.074154,120.466346 L130.074154,125.284652 L117.90103,125.284652 L117.90103,98.3867529 L124.079313,98.3867529 Z M51.9241579,98.3867529 L51.9241579,103.228563 L46.2185941,103.228563 L46.2185941,109.123349 L51.4937712,109.123349 L51.4937712,113.748923 L46.2185941,113.748923 L46.2185941,120.466346 L52.3521927,120.466346 L52.3521927,125.284652 L40.0755881,125.284652 L40.0755881,98.3867529 L51.9241579,98.3867529 Z M106.081388,102.707481 C104.924283,102.707481 104.46097,102.956622 104.46097,103.943787 L104.46097,119.721977 C104.46097,120.718543 104.924283,120.979437 106.081388,120.979437 C107.214975,120.979437 107.661824,120.718543 107.661824,119.721977 L107.661824,103.943787 C107.661824,102.956622 107.214975,102.707481 106.081388,102.707481 Z M140.817829,102.707481 C139.679538,102.707481 139.230337,102.956622 139.230337,103.943787 L139.230337,119.721977 C139.230337,120.718543 139.679538,120.979437 140.817829,120.979437 C141.98199,120.979437 142.412376,120.718543 142.412376,119.721977 L142.412376,103.943787 C142.412376,102.956622 141.98199,102.707481 140.817829,102.707481 Z M190.959527,102.109776 L190.877213,102.109776 L189.428479,114.204899 L192.398853,114.204899 L190.959527,102.109776 Z M27.8361426,65.3994549 C33.2195043,65.3994549 34.8587367,66.8731514 34.8587367,70.0062255 L34.8587367,74.8926929 L28.9015261,74.8926929 L28.9015261,71.3718039 C28.9015261,70.5632686 28.3464919,70.2154105 27.3469599,70.2154105 C26.272169,70.2154105 25.7077274,70.5632686 25.7077274,71.3718039 L25.7077274,86.8961508 C25.7077274,87.7093868 26.272169,88.0501938 27.3116823,88.0501938 C28.3464919,88.0501938 28.9015261,87.7093868 28.9015261,86.8961508 L28.9015261,82.6795454 L34.8587367,82.6795454 L34.8587367,86.6517099 C34.8587367,91.3807009 33.0384126,92.8826022 27.8361426,92.8826022 L25.5242839,92.8826022 C20.9476034,92.8826022 19.3154264,90.6144728 19.3154264,87.1194381 L19.3154264,71.9241463 C19.3154264,67.6276276 20.9476034,65.3994549 25.5242839,65.3994549 L27.8361426,65.3994549 Z M7.98543741,65.3985147 C13.3217623,65.3985147 15.1091607,66.8722112 15.1091607,70.6281395 L15.1091607,73.8669813 L9.61291066,73.8669813 L9.61291066,72.5578123 C9.61291066,70.1956672 9.43417082,70.0076357 7.86784541,70.0076357 C6.29166036,70.0076357 6.12449185,70.6226147 6.11396437,71.7794405 L6.1133728,73.7189065 C6.1133728,75.41354 6.57198159,75.7237919 8.39465756,76.1680162 C14.9704021,77.8650001 15.6971206,78.3562322 15.6971206,85.2710889 C15.6971206,91.7205678 13.3217623,92.8793116 8.09127021,92.8793116 C1.39558183,92.8793116 0.163217693,91.3351033 0.163217693,85.9832581 L0.163217693,83.7362822 L5.89465168,83.7362822 L5.89465168,85.6683054 C5.89465168,87.5274664 5.89465168,88.2701906 7.72673501,88.2701906 C9.08609851,88.2701906 9.5447073,87.8306671 9.5447073,86.6813248 L9.5447073,83.7926916 C9.5447073,81.9147275 9.14019083,81.8207118 5.89465168,81.0239285 C1.09219448,79.8957398 0.163217693,78.7275944 0.163217693,73.9327923 L0.163217693,72.2804659 C0.163217693,66.0237193 2.10348566,65.3985147 7.98543741,65.3985147 Z M60.9632196,65.6854977 L60.9632196,70.5132053 L55.2647113,70.5132053 L55.2647113,76.4244441 L60.5469439,76.4244441 L60.5469439,81.0241635 L55.2647113,81.0241635 L55.2647113,87.7556896 L61.4006618,87.7556896 L61.4006618,92.5880979 L49.1005388,92.5880979 L49.1005388,65.6854977 L60.9632196,65.6854977 Z M117.323653,65.6854977 L121.357059,92.5880979 L115.096461,92.5880979 L114.318002,86.1198159 L110.310466,86.1198159 L109.501433,92.5880979 L103.224373,92.5880979 L107.262482,65.6854977 L117.323653,65.6854977 Z M101.107481,65.6854977 L101.107481,70.3674809 L94.2142385,87.7556896 L101.107481,87.7556896 L101.107481,92.5880979 L87.5679388,92.5880979 L87.5679388,87.9695753 L94.4941075,70.5132053 L88.2687871,70.5132053 L88.2687871,65.6854977 L101.107481,65.6854977 Z M74.3190835,65.6862028 L78.8487273,86.6493595 L78.9333935,86.5670957 L78.4865439,65.6862028 L84.1921077,65.6862028 L84.1921077,92.588803 L75.2010235,92.588803 L70.711361,71.6326975 L70.6408058,71.6326975 L71.0100447,92.588803 L65.3350549,92.588803 L65.3350549,65.6862028 L74.3190835,65.6862028 Z M44.6376873,65.6843225 L44.6376873,92.5869227 L38.4758666,92.5869227 L38.4758666,65.6843225 L44.6376873,65.6843225 Z M112.349512,69.4132213 L112.274253,69.4132213 L110.834927,81.5224469 L113.781782,81.5224469 L112.349512,69.4132213 Z M77.6925628,32.6918536 C82.8595552,32.6918536 85.6770594,33.8435463 85.6770594,38.2105768 L85.6770594,54.6492266 C85.6770594,59.0303595 82.8595552,60.2008552 77.6925628,60.2008552 C72.5255704,60.2008552 69.6939551,59.0303595 69.6939551,54.6492266 L69.6939551,38.2105768 C69.6939551,33.8435463 72.5255704,32.6918536 77.6925628,32.6918536 Z M9.00519521,32.9802469 L13.5277835,53.9316516 L13.6006905,53.8658405 L13.1703038,32.9802469 L18.8829231,32.9802469 L18.8829231,59.8828471 L9.90124624,59.8828471 L5.39512087,38.929092 L5.33397303,38.929092 L5.69145271,59.8828471 L-1.77635684e-15,59.8828471 L-1.77635684e-15,32.9802469 L9.00519521,32.9802469 Z M98.6112385,32.9802469 L103.143234,53.9316516 L103.23966,53.8658405 L102.778699,32.9802469 L108.500726,32.9802469 L108.500726,59.8828471 L99.5119932,59.8828471 L95.0223307,38.929092 L94.9564792,38.929092 L95.3304218,59.8828471 L89.6154506,59.8828471 L89.6154506,32.9802469 L98.6112385,32.9802469 Z M159.580338,32.9795417 L159.580338,37.8143005 L153.9077,37.8143005 L153.9077,43.7137873 L159.194636,43.7137873 L159.194636,48.3158572 L153.9077,48.3158572 L153.9077,55.0426824 L160.036595,55.0426824 L160.036595,59.8797915 L147.73412,59.8797915 L147.73412,32.9795417 L159.580338,32.9795417 Z M138.766319,32.9795417 L138.766319,55.0426824 L144.744696,55.0426824 L144.744696,59.8797915 L132.604498,59.8797915 L132.604498,32.9795417 L138.766319,32.9795417 Z M35.8436873,32.9795417 L39.8841484,59.8797915 L33.6306059,59.8797915 L32.8192211,53.4138599 L28.8210932,53.4138599 L28.0402823,59.8797915 L21.7538141,59.8797915 L25.8013307,32.9795417 L35.8436873,32.9795417 Z M55.6572334,32.9795417 L55.6572334,37.6521234 L48.7733979,55.0426824 L55.6572334,55.0426824 L55.6572334,59.8797915 L42.0941724,59.8797915 L42.0941724,55.2636194 L49.0273966,37.8143005 L42.8373538,37.8143005 L42.8373538,32.9795417 L55.6572334,32.9795417 Z M125.57673,32.9795417 L129.624247,59.8797915 L123.349538,59.8797915 L122.559319,53.4138599 L118.549432,53.4138599 L117.770973,59.8797915 L111.479801,59.8797915 L115.52967,32.9795417 L125.57673,32.9795417 Z M65.7572102,32.9762512 L65.7572102,59.8788514 L59.5930376,59.8788514 L59.5930376,32.9762512 L65.7572102,32.9762512 Z M77.6925628,37.2986242 C76.5260502,37.2986242 76.1003671,37.5712698 76.1003671,38.558435 L76.1003671,54.3131204 C76.1003671,55.321439 76.5260502,55.5705807 77.6925628,55.5705807 C78.835557,55.5705807 79.3035732,55.321439 79.3035732,54.3131204 L79.3035732,38.558435 C79.3035732,37.5712698 78.835557,37.2986242 77.6925628,37.2986242 Z M30.8530829,36.7025645 L30.7566575,36.7025645 L29.3196833,48.8164909 L32.3182792,48.8164909 L30.8530829,36.7025645 Z M120.597885,36.7025645 L120.506163,36.7025645 L119.064485,48.8164909 L122.041914,48.8164909 L120.597885,36.7025645 Z M56.1911011,0 C61.5485925,0 63.3359909,1.48309809 63.3359909,5.24372716 L63.3359909,8.47081698 L57.8209262,8.47081698 L57.8209262,7.17575034 C57.8209262,4.81830599 57.6445382,4.61852257 56.0829165,4.61852257 C54.5112542,4.61852257 54.3507829,5.21829006 54.3407639,6.39901962 L54.3402031,8.33214378 C54.3402031,10.0385292 54.7870527,10.3393795 56.5979694,10.7883046 C63.1831213,12.4852885 63.9286546,12.9600679 63.9286546,19.8819758 C63.9286546,26.3361554 61.5485925,27.4972497 56.3086931,27.4972497 C49.6247639,27.4972497 48.3782888,25.9295374 48.3782888,20.582393 L48.3782888,18.3471691 L54.1050191,18.3471691 L54.1056162,20.6696326 C54.113677,22.2504287 54.2305587,22.8881287 55.9253432,22.8881287 C57.3152806,22.8881287 57.7574265,22.4392036 57.7574265,21.2898613 L57.7574265,18.3965273 C57.7574265,16.5467679 57.3576137,16.4315986 54.1050191,15.6418665 C49.3354876,14.4948747 48.3782888,13.3525836 48.3782888,8.54837995 L48.3782888,6.92895906 C48.3782888,0.632255762 50.313853,0 56.1911011,0 Z M90.9576457,0.00188031453 C96.1246381,0.00188031453 98.9444942,1.15592336 98.9444942,5.53705622 L98.9444942,21.9592533 C98.9444942,26.3380358 96.1246381,27.4967796 90.9576457,27.4967796 C85.7906533,27.4967796 82.9425751,26.3380358 82.9425751,21.9592533 L82.9425751,5.53705622 C82.9425751,1.15592336 85.7906533,0.00188031453 90.9576457,0.00188031453 Z M35.5675813,0.303670797 L35.5675813,20.9706779 C35.5675813,22.0119021 35.9720978,22.6606106 37.1903509,22.6606106 C38.4133077,22.6606106 38.8295833,22.0119021 38.8295833,20.9706779 L38.8295833,0.303670797 L45.0031632,0.303670797 L45.0031632,20.7755953 C45.0031632,26.7620467 42.140974,27.4953694 37.1903509,27.4953694 C32.2538388,27.4953694 29.3987051,26.7620467 29.3987051,20.7755953 L29.3987051,0.303670797 L35.5675813,0.303670797 Z M79.3680136,0.303670797 L79.3680136,5.12197679 L73.6718572,5.12197679 L73.6718572,11.0332156 L78.9587934,11.0332156 L78.9587934,15.6399862 L73.6718572,15.6399862 L73.6718572,22.3738626 L79.8125113,22.3738626 L79.8125113,27.2015702 L67.5006291,27.2015702 L67.5006291,0.303670797 L79.3680136,0.303670797 Z M9.69475469,0.305316073 L12.702758,21.4729569 L12.7709614,21.4729569 L15.7836684,0.305316073 L25.4850082,0.305316073 L25.4850082,27.2008651 L19.8617588,27.2008651 L20.0992947,4.55247653 L20.0169803,4.55247653 L16.0329634,27.2008651 L8.9892027,27.2008651 L5.55551636,4.46081119 L5.48025748,4.46081119 L5.48025748,27.2008651 L0.000470367992,27.2008651 L0.000470367992,0.305316073 L9.69475469,0.305316073 Z M90.9576457,4.6180525 C89.8052441,4.6180525 89.3583945,4.86719417 89.3583945,5.87786323 L89.3583945,21.6160959 C89.3583945,22.6291153 89.8052441,22.8876586 90.9576457,22.8876586 C92.0935844,22.8876586 92.5568969,22.6291153 92.5568969,21.6160959 L92.5568969,5.87786323 C92.5568969,4.86719417 92.0935844,4.6180525 90.9576457,4.6180525 Z" id="Combined-Shape" fill="#003142"></path>
    </g>
</svg>